[hls @ 0x55ea35284200] Skip ('#EXT-X-DATERANGE:ID="source-1764923473",CLASS="twitch-stream-source",START-DATE="2025-12-05T08:31:13.649Z",END-ON-NEXT=YES,X-TV-TWITCH-STREAM-SOURCE="live"')
[hls @ 0x55ea35284200] Skip ('#EXT-X-DATERANGE:ID="trigger-1764923473",CLASS="twitch-trigger",START-DATE="2025-12-05T08:31:13.649Z",END-ON-NEXT=YES,X-TV-TWITCH-TRIGGER-URL="https://euw12.playlist.ttvnw.net/trigger/CqAGJp_nhwa_3hoqvgmQSHr3z43wSopQvf1tzrFTA7oGp9mvNqmRpYepS2tF0VrsAQ36xP6gTORLBt_Dgtn4q-x16FuaGfrZHsqxXEAJ_EwsHu_aRdGW7cBRlU-NfjgRIiFgEYArsw0bIq5lhL9Ddaps-_lM5Qtu4SSsM2JOV_cxY1XFXVcD1JfAuvbRA9U1O0B7urS-C-Y-sEIGCN56DbBW0NFD5fgZHfoY7irPecBlh3WRNLpysD2s8h8-gWSiXVXwmkPQgB3lXOvTYZcrxlz4i6pNphiyqArNmmIIyuIHiRVsx3oKwhrKT_HKlw6iIpohvyNfcA1lCJ26zxtXo0BT5jpCE7m1YWJbsHlC2HHo50v-drcMUwJiZVUjBhw7yi5d0VeUxsOLAKec4cv6TJozMxp0FfRmDKICwaHwwU4yljoShLCjZjP7wmuAfg-Rpz3sjTShftZKuZ58lzsS7kMWIuB2AqnMF7NFhcnY9JEV4GpO5NfI7sLV3rssvOagAf8b5mpSj3GIy_Dai1MlZK26513_j8Iz3rFaS_P75sg24vxCFpTY2wIWzVOX-Dt5LdUnywu9JQvmSyomuBIwOXoTbN5rFiF3V_Xt7hKuV2Pu2GeySAX2886d9OU_lv5EOQceiY5QWrNY4rbnqq80t1XlJ445Nqa3xJhitFrjNAehxJBcoOY2jzwbshdjO1U9mcC50uy17GxnAe58-8lpXAsQ2zva-qXpx84KW0AG94gSaQaXHfxawxHB2pi1BZ3qk_OxC3sUkcyaOw7kxmsDUNwSvbvzKWM2RhkeYnr2ouTPGG52FFeT-oB4q9iOl4Y-kQgwmPGRI2UpStCM90oHK8N1Kf2EjndzZhwLZIKq30sUjSBuGdXiPek8rkBnfNS7exfdfRqhhTITwqzPd-8yuVvfZcn7PjJiMqSbM4K1BETAvULqO8jzd_Pgj5icDGVCLYX_SfdJrpgPs1Z_7JGGOt3-z9oZqLAV6sjdki6cYXWYp6w9OLgvAEl7l_yQYT0dcy9oIcKUjzfMWwH63VSjxuxPDTLKuk0UWPhWDhUubGn3y70aDF7Q7wFaxweJT5E6MCABKglldS13ZXN0LTIw8A0"')
[hls @ 0x55ea35284200] Skip ('#EXT-X-PROGRAM-DATE-TIME:2025-12-05T08:31:43.649Z')
[hls @ 0x55ea35284200] Skip ('#EXT-X-PROGRAM-DATE-TIME:2025-12-05T08:31:45.649Z')
[hls @ 0x55ea35284200] Skip ('#EXT-X-PROGRAM-DATE-TIME:2025-12-05T08:31:47.649Z')
[hls @ 0x55ea35284200] Skip ('#EXT-X-PROGRAM-DATE-TIME:2025-12-05T08:31:49.649Z')
[hls @ 0x55ea35284200] Skip ('#EXT-X-PROGRAM-DATE-TIME:2025-12-05T08:31:51.649Z')
[hls @ 0x55ea35284200] Skip ('#EXT-X-PROGRAM-DATE-TIME:2025-12-05T08:31:53.649Z')
[hls @ 0x55ea35284200] Skip ('#EXT-X-PROGRAM-DATE-TIME:2025-12-05T08:31:55.649Z')
[hls @ 0x55ea35284200] Skip ('#EXT-X-PROGRAM-DATE-TIME:2025-12-05T08:31:57.649Z')
[hls @ 0x55ea35284200] Skip ('#EXT-X-PROGRAM-DATE-TIME:2025-12-05T08:31:59.649Z')
[hls @ 0x55ea35284200] Skip ('#EXT-X-PROGRAM-DATE-TIME:2025-12-05T08:32:01.649Z')
[hls @ 0x55ea35284200] Skip ('#EXT-X-PROGRAM-DATE-TIME:2025-12-05T08:32:03.649Z')
[hls @ 0x55ea35284200] Skip ('#EXT-X-PROGRAM-DATE-TIME:2025-12-05T08:32:05.649Z')
[hls @ 0x55ea35284200] Skip ('#EXT-X-PROGRAM-DATE-TIME:2025-12-05T08:32:07.649Z')
[hls @ 0x55ea35284200] Skip ('#EXT-X-PROGRAM-DATE-TIME:2025-12-05T08:32:09.649Z')
[hls @ 0x55ea35284200] Skip ('#EXT-X-TWITCH-PREFETCH:https://7dfcb88758ec.j.cloudfront.hls.ttvnw.net/v1/segment/CuQCW4FgxntJuNOi3HAZGcqM79c2CzXwdf1KRHuzxDhLfch2yodDqH3OizZowkQE6j0b1soX8BCXf56POEs2D1NT_llsxnlJgaXTfoyzFW65lgis22aLmnsHr4qGmMCIDI4oYIgu2wf2oKM84igW8yjODKqXs7HDmWXDvk1m4iXXNgIhCL_7ZH1H-b7RjJTyO0YcVWmiw9RvDsxdYRlas7A6uuu0lMtj1Eviixpum2pwJEJe5rwQQLLrA112VsARZduy41d38iHzYcTDekPvqr1rDx5o9vzRV5XANDfbw54wSAuBv5AfTdNHmAwPd2o4YNnDv9xE19oQxEXiC15gl1nmXdgOeUFPYTI0nD9Awi4VYp3u3cbeSWqWEa_jKMVuI9zhJKM0UZDniJgN3epk1HmKjeYXbiXk-IuurqHcLQ2CQE-v4u1J6l0rkq3jkA0tAAm4rO-VEdcor9HzVd56FYqy1KDL5OEaDCmj-8qs6hpK2xCVQSABKglldS13ZXN0LTIw8A0.ts?dna=Cm1GkNRw8J1t_r3_tfkkswXRbGqUPvawLvlyiOH2GzJmijDvzeuJX__L2dzT6RcTo65T2Sjux9nvm5gmofV2lhvVP0n9Tqp2oqgERc-uGniX-luELFlWX4PshKn8BmdXrVewcTM7GSb1AHn7Na9eGgz42CR2kefd_YcFdrMgASoJZXUtd2VzdC0yMPAN')
[hls @ 0x55ea35284200] Skip ('#EXT-X-TWITCH-PREFETCH:https://7dfcb88758ec.j.cloudfront.hls.ttvnw.net/v1/segment/CuQCRt1ZY1UKwz5pI3HRAC1xIFHbRch6RZx0Na137wHlFCXdmQueYyp_SJxrN8jNto96uM-9qc3Q7NuDccPJJL2a06C6OAiSSs4dTiihJqEIOoZi5bF0RD2W5wIjq603SZ6quCMduetL6ElFEJrON8pqY-UCNs9fpbjSIhomokj5czzu2KycTiwZDkd_oyEWJczIW26kfhn_bLbKeBys6SQ3ECtEGblofETAXV4f2-jz79g2n_CQzRvWRPvTrIlQtFLG7qGNiGAzcs3yOH89pfqbw3Z801RMe_HSLDauR2Wsw3fUgKZeVoUTHj2DLYhA9n321WQ1J0BBbZaodYMgCy8Fu_dxPddWWoAApam0R9Xoy6E2Lfat_UWhq--sj25raTSoUlyW131w2TRrzpIkRGNuXVM9OpVf0rTyobfW5irzkQmSjH2JRGgbeHY9AqK-WjULGT2Vd4DOgMd-FiFnnCycWsEDR3AaDGI8bnCfvK9Eyi5A3CABKglldS13ZXN0LTIw8A0.ts?dna=Cm1GkNRw8J1t_r3_tfkkswXRbGqUPvawLvlyiOH2GzJmijDvzeuJX__L2dzT6RcTo65T2Sjux9nvm5gmofV2lhvVP0n9Tqp2oqgERc-uGniX-luELFlWX4PshKn8BmdXrVewcTM7GSb1AHn7Na9eGgz42CR2kefd_YcFdrMgASoJZXUtd2VzdC0yMPAN')
[https @ 0x55ea3554f740] Opening 'https://7dfcb88758ec.j.cloudfront.hls.ttvnw.net/v1/segment/CuQCkayZMBVoPN_QBlHeMBcWI0Tg8k_a9XdWmf6_7v6kCHhZbFi2D_Wv0AErjXENimViaO98BhukaRYR0ZJL9OtpchRyGwk0H2l_eVo8UrLRrEp2jsqs_1v8PhBC60iGR7kfuQqCS8s0daPL-ebw6WTlNTUwchsgd0VhQNnAFy46_PzLsBE3Fv8Xy6pk7lSgAipvkUCH_Vsvq_yaYXn3F40AUl9-Ticcy8rvYkn3B8MxIK7iK_QJIJjlKJ_8DvxFJglvTmFnvcJlnhjASGcZEdci9UsoHVdqesHhUM2jf3gPdTWAmfGT1FquCoh_SY8ddO6zXeT-tgRxacVjHi8iQipGje1RRoGYaUC1EKFuoIBtCuTeO2GZlAiuC3_58SAptxBMsqu5aKQYKoUBaoigCRUR6CKm_5SnrwENalBuFtZl3GFsFioKAiKKKm65uZlvDw4JUqDtyOPvTz2K0KygEeSNYgAKUSwaDEL8qnwfr-XlK8IstyABKglldS13ZXN0LTIw8A0.ts?dna=Cm1GkNRw8J1t_r3_tfkkswXRbGqUPvawLvlyiOH2GzJmijDvzeuJX__L2dzT6RcTo65T2Sjux9nvm5gmofV2lhvVP0n9Tqp2oqgERc-uGniX-luELFlWX4PshKn8BmdXrVewcTM7GSb1AHn7Na9eGgz42CR2kefd_YcFdrMgASoJZXUtd2VzdC0yMPAN' for reading
frame=  538 fps= 37 q=-1.0 size=    2560KiB time=00:00:17.86 bitrate=1173.8kbits/s speed=1.23x    
frame=  598 fps= 40 q=-1.0 size=    2816KiB time=00:00:19.86 bitrate=1161.2kbits/s speed=1.32x    
frame=  598 fps= 39 q=-1.0 size=    2816KiB time=00:00:19.86 bitrate=1161.2kbits/s speed=1.28x    
frame=  598 fps= 37 q=-1.0 size=    2816KiB time=00:00:19.86 bitrate=1161.2kbits/s speed=1.24x    
frame=  598 fps= 36 q=-1.0 size=    2816KiB time=00:00:19.86 bitrate=1161.2kbits/s speed= 1.2x    
[https @ 0x7f8b0000e280] Opening 'https://euw12.playlist.ttvnw.net/v1/playlist/CqIG73Ut4IjGrCwubijqwiydo5tcmdU4MkrLy25nDFLAjUuLHwjDRNivGULw6IH-eeodbIuGjGeexPGe-NcLN6dy9zmMc7nLClZ0SBXYwhJRyCxD2Qwu8Y4ccYbj_AATy72TMZtIVTUanrIuIjc8bPx-GfEAY32iP5r2Q_ekADBPniAe9NuFY4nlPdzsAe4nnJVjbwMxm41BPDXpCuglXM7p2euOqRTRBMkiwxoXs64YjWqCQsUCErZSoapkzg0K4JxeLFtdWq4uJTjwjuRG505GfWRAhEok_RWW6taIoJBFuujHGP_txxXqKy6xDcU4eUOWIzWNVqqqdQ7ByWrwGWCAHLBOzwrQmpgjT-RkJFwsg9pPhT-OjEqpz0zuzDY_a3wNOHoYCagEqoLn57gc1dVJwKt6nqNFtKWIarKKLABgx4mKNSDTiMqJH6MbUuyozXmov9xFDHSCky1UVLeUhrn8GC1DfUJ9rLuqIOQ0JCC1cngR_PN1gQH7dVbkixguTWrxVhMCNP6PZ4dMjLAaYS1gwrIK7HEGvdP2nIuNYM0s4xIDYTw4W3tmSvmoqJkXpP50C46RlZ_UauuQEWy89zPA6ReIF6ZomTUTPnmzxJUOTPONLVpY0DUkSYIJcz9sULiwPOpC2zi0Cn5cFWxqcbRClA4ZQ_qiPkxirj-rvRHRJ7I_PcZNtQBI9MfIrJcGJSO_elSweGm57Iy6URfpPLAwTQAZjztN2Y37gAzYkn5_NogtbcbwDG-6VFf-ndYLHPZGkiu5f8FjmD4WKjijhZxVFz9x36E-gjjohnNhVD4YFuQ7wGz_5i8WdhLinlB-EIRO6Tn3AT6Us9RX2m1gv7fYIdd7b86uj7NvjGu5u_-S-FZeYivrevy51_VTzydOGilPtZykMJNTfppWtpAiwdLT2nLyWKJBOfwhFIYxvMVzZ_dODSdk0yp6jAX3bGm-ugk9X1LADXrzermSQS4L1tsLZXldHWjL3tudNwnIQWwQPAu6VQoh6pcZxqNwb2xDRY8pIBrTULXppBPpbwVVBwbDxJt9CP4HteLQJh-S6Op8hBbV-BoMjWhw8TaRdYtQ4zgcIAEqCWV1LXdlc3QtMjDwDQ.m3u8' for reading
[hls @ 0x55ea35284200] Skip ('#EXT-X-VERSION:3')
[hls @ 0x55ea35284200] Skip ('#EXT-X-TWITCH-LIVE-SEQUENCE:1927')
[hls @ 0x55ea35284200] Skip ('#EXT-X-TWITCH-ELAPSED-SECS:3854.000')
[hls @ 0x55ea35284200] Skip ('#EXT-X-TWITCH-TOTAL-SECS:3886.000')
[hls @ 0x55ea35284200] Skip ('#EXT-X-DATERANGE:ID="playlist-creation-1764923504",CLASS="timestamp",START-DATE="2025-12-05T08:31:44.022Z",END-ON-NEXT=YES,X-SERVER-TIME="1764923504.02"')
[hls @ 0x55ea35284200] Skip ('#EXT-X-DATERANGE:ID="playlist-session-1764923504",CLASS="twitch-session",START-DATE="2025-12-05T08:31:44.022Z",END-ON-NEXT=YES,X-TV-TWITCH-SESSIONID="4646433022628159077"')
[hls @ 0x55ea35284200] Skip ('#EXT-X-DATERANGE:ID="source-1764923473",CLASS="twitch-stream-source",START-DATE="2025-12-05T08:31:13.649Z",END-ON-NEXT=YES,X-TV-TWITCH-STREAM-SOURCE="live"')
[hls @ 0x55ea35284200] Skip ('#EXT-X-DATERANGE:ID="trigger-1764923473",CLASS="twitch-trigger",START-DATE="2025-12-05T08:31:13.649Z",END-ON-NEXT=YES,X-TV-TWITCH-TRIGGER-URL="https://euw12.playlist.ttvnw.net/trigger/CqAGJp_nhwa_3hoqvgmQSHr3z43wSopQvf1tzrFTA7oGp9mvNqmRpYepS2tF0VrsAQ36xP6gTORLBt_Dgtn4q-x16FuaGfrZHsqxXEAJ_EwsHu_aRdGW7cBRlU-NfjgRIiFgEYArsw0bIq5lhL9Ddaps-_lM5Qtu4SSsM2JOV_cxY1XFXVcD1JfAuvbRA9U1O0B7urS-C-Y-sEIGCN56DbBW0NFD5fgZHfoY7irPecBlh3WRNLpysD2s8h8-gWSiXVXwmkPQgB3lXOvTYZcrxlz4i6pNphiyqArNmmIIyuIHiRVsx3oKwhrKT_HKlw6iIpohvyNfcA1lCJ26zxtXo0BT5jpCE7m1YWJbsHlC2HHo50v-drcMUwJiZVUjBhw7yi5d0VeUxsOLAKec4cv6TJozMxp0FfRmDKICwaHwwU4yljoShLCjZjP7wmuAfg-Rpz3sjTShftZKuZ58lzsS7kMWIuB2AqnMF7NFhcnY9JEV4GpO5NfI7sLV3rssvOagAf8b5mpSj3GIy_Dai1MlZK26513_j8Iz3rFaS_P75sg24vxCFpTY2wIWzVOX-Dt5LdUnywu9JQvmSyomuBIwOXoTbN5rFiF3V_Xt7hKuV2Pu2GeySAX2886d9OU_lv5EOQceiY5QWrNY4rbnqq80t1XlJ445Nqa3xJhitFrjNAehxJBcoOY2jzwbshdjO1U9mcC50uy17GxnAe58-8lpXAsQ2zva-qXpx84KW0AG94gSaQaXHfxawxHB2pi1BZ3qk_OxC3sUkcyaOw7kxmsDUNwSvbvzKWM2RhkeYnr2ouTPGG52FFeT-oB4q9iOl4Y-kQgwmPGRI2UpStCM90oHK8N1Kf2EjndzZhwLZIKq30sUjSBuGdXiPek8rkBnfNS7exfdfRqhhTITwqzPd-8yuVvfZcn7PjJiMqSbM4K1BETAvULqO8jzd_Pgj5icDGVCLYX_SfdJrpgPs1Z_7JGGOt3-z9oZqLAV6sjdki6cYXWYp6w9OLgvAEl7l_yQYT0dcy9oIcKUjzfMWwH63VSjxuxPDTLKuk0UWPhWDhUubGn3y70aDF7Q7wFaxweJT5E6MCABKglldS13ZXN0LTIw8A0"')
[hls @ 0x55ea35284200] Skip ('#EXT-X-PROGRAM-DATE-TIME:2025-12-05T08:31:45.649Z')
[hls @ 0x55ea35284200] Skip ('#EXT-X-PROGRAM-DATE-TIME:2025-12-05T08:31:47.649Z')
[hls @ 0x55ea35284200] Skip ('#EXT-X-PROGRAM-DATE-TIME:2025-12-05T08:31:49.649Z')
[hls @ 0x55ea35284200] Skip ('#EXT-X-PROGRAM-DATE-TIME:2025-12-05T08:31:51.649Z')
[hls @ 0x55ea35284200] Skip ('#EXT-X-PROGRAM-DATE-TIME:2025-12-05T08:31:53.649Z')
[hls @ 0x55ea35284200] Skip ('#EXT-X-PROGRAM-DATE-TIME:2025-12-05T08:31:55.649Z')
[hls @ 0x55ea35284200] Skip ('#EXT-X-PROGRAM-DATE-TIME:2025-12-05T08:31:57.649Z')
[hls @ 0x55ea35284200] Skip ('#EXT-X-PROGRAM-DATE-TIME:2025-12-05T08:31:59.649Z')
[hls @ 0x55ea35284200] Skip ('#EXT-X-PROGRAM-DATE-TIME:2025-12-05T08:32:01.649Z')
[hls @ 0x55ea35284200] Skip ('#EXT-X-PROGRAM-DATE-TIME:2025-12-05T08:32:03.649Z')
[hls @ 0x55ea35284200] Skip ('#EXT-X-PROGRAM-DATE-TIME:2025-12-05T08:32:05.649Z')
[hls @ 0x55ea35284200] Skip ('#EXT-X-PROGRAM-DATE-TIME:2025-12-05T08:32:07.649Z')
[hls @ 0x55ea35284200] Skip ('#EXT-X-PROGRAM-DATE-TIME:2025-12-05T08:32:09.649Z')
[hls @ 0x55ea35284200] Skip ('#EXT-X-PROGRAM-DATE-TIME:2025-12-05T08:32:11.649Z')
[hls @ 0x55ea35284200] Skip ('#EXT-X-TWITCH-PREFETCH:https://7dfcb88758ec.j.cloudfront.hls.ttvnw.net/v1/segment/CuQCRt1ZY1UKwz5pI3HRAC1xIFHbRch6RZx0Na137wHlFCXdmQueYyp_SJxrN8jNto96uM-9qc3Q7NuDccPJJL2a06C6OAiSSs4dTiihJqEIOoZi5bF0RD2W5wIjq603SZ6quCMduetL6ElFEJrON8pqY-UCNs9fpbjSIhomokj5czzu2KycTiwZDkd_oyEWJczIW26kfhn_bLbKeBys6SQ3ECtEGblofETAXV4f2-jz79g2n_CQzRvWRPvTrIlQtFLG7qGNiGAzcs3yOH89pfqbw3Z801RMe_HSLDauR2Wsw3fUgKZeVoUTHj2DLYhA9n321WQ1J0BBbZaodYMgCy8Fu_dxPddWWoAApam0R9Xoy6E2Lfat_UWhq--sj25raTSoUlyW131w2TRrzpIkRGNuXVM9OpVf0rTyobfW5irzkQmSjH2JRGgbeHY9AqK-WjULGT2Vd4DOgMd-FiFnnCycWsEDR3AaDGI8bnCfvK9Eyi5A3CABKglldS13ZXN0LTIw8A0.ts?dna=Cm1GkNRw8J1t_r3_tfkkswXRbGqUPvawLvlyiOH2GzJmijDvzeuJX__L2dzT6RcTo65T2Sjux9nvm5gmofV2lhvVP0n9Tqp2oqgERc-uGniX-luELFlWX4PshKn8BmdXrVewcTM7GSb1AHn7Na9eGgz42CR2kefd_YcFdrMgASoJZXUtd2VzdC0yMPAN')
[hls @ 0x55ea35284200] Skip ('#EXT-X-TWITCH-PREFETCH:https://7dfcb88758ec.j.cloudfront.hls.ttvnw.net/v1/segment/CuQCffGYiDgG-rQR5ql9hhFtEHr1S3trpW2PJi-s0WRwPlQXjJ3kBnvn6JmKRM5t33SUFVjQYM-RvtpQnC7WgfMxwTaN6DBMQjn8hM_geZu2WQYvVIP4chrtcLfWQrfmkBa4eB8sTVrSmVUi9V20hcJ1-xRNTwY9ecFq48RCEXnvmbw_iqHSyx8I4Ezdf18X0__gQRph7hH7tzE45RxcDjE7LZ6IZT-S9tne5qY3Z42Rg2p2MS7fGVju4d6k5eeetuKbzPyzxfC3bJzylYYM1ynJTnNS_zHndny1aZVqpfX8COVsLkRIk5V5BG2oafXSKfakAZcFAKvm4mR-0mzNkk-vfPDUVNPoURWvAvcPle5M3dntDGKAZ9v8KgtIAr--IzztL0nGJtnvJs7N4wi_VHG8wqWrOlXqahTtaSDTktSkAp53mP09-41rokes49KzuvKIZc2V5SdzsomEs6kGr3w2nZylAC8aDDQKKtvQL8Jm-NAEQiABKglldS13ZXN0LTIw8A0.ts?dna=Cm1GkNRw8J1t_r3_tfkkswXRbGqUPvawLvlyiOH2GzJmijDvzeuJX__L2dzT6RcTo65T2Sjux9nvm5gmofV2lhvVP0n9Tqp2oqgERc-uGniX-luELFlWX4PshKn8BmdXrVewcTM7GSb1AHn7Na9eGgz42CR2kefd_YcFdrMgASoJZXUtd2VzdC0yMPAN')
[https @ 0x55ea3554f740] Opening 'https://7dfcb88758ec.j.cloudfront.hls.ttvnw.net/v1/segment/CuQCW4FgxntJuNOi3HAZGcqM79c2CzXwdf1KRHuzxDhLfch2yodDqH3OizZowkQE6j0b1soX8BCXf56POEs2D1NT_llsxnlJgaXTfoyzFW65lgis22aLmnsHr4qGmMCIDI4oYIgu2wf2oKM84igW8yjODKqXs7HDmWXDvk1m4iXXNgIhCL_7ZH1H-b7RjJTyO0YcVWmiw9RvDsxdYRlas7A6uuu0lMtj1Eviixpum2pwJEJe5rwQQLLrA112VsARZduy41d38iHzYcTDekPvqr1rDx5o9vzRV5XANDfbw54wSAuBv5AfTdNHmAwPd2o4YNnDv9xE19oQxEXiC15gl1nmXdgOeUFPYTI0nD9Awi4VYp3u3cbeSWqWEa_jKMVuI9zhJKM0UZDniJgN3epk1HmKjeYXbiXk-IuurqHcLQ2CQE-v4u1J6l0rkq3jkA0tAAm4rO-VEdcor9HzVd56FYqy1KDL5OEaDCmj-8qs6hpK2xCVQSABKglldS13ZXN0LTIw8A0.ts?dna=Cm1GkNRw8J1t_r3_tfkkswXRbGqUPvawLvlyiOH2GzJmijDvzeuJX__L2dzT6RcTo65T2Sjux9nvm5gmofV2lhvVP0n9Tqp2oqgERc-uGniX-luELFlWX4PshKn8BmdXrVewcTM7GSb1AHn7Na9eGgz42CR2kefd_YcFdrMgASoJZXUtd2VzdC0yMPAN' for reading
frame=  658 fps= 39 q=-1.0 size=    3072KiB time=00:00:21.86 bitrate=1150.9kbits/s speed=1.29x    
[https @ 0x7f8b0000e280] Opening 'https://euw12.playlist.ttvnw.net/v1/playlist/CqIG73Ut4IjGrCwubijqwiydo5tcmdU4MkrLy25nDFLAjUuLHwjDRNivGULw6IH-eeodbIuGjGeexPGe-NcLN6dy9zmMc7nLClZ0SBXYwhJRyCxD2Qwu8Y4ccYbj_AATy72TMZtIVTUanrIuIjc8bPx-GfEAY32iP5r2Q_ekADBPniAe9NuFY4nlPdzsAe4nnJVjbwMxm41BPDXpCuglXM7p2euOqRTRBMkiwxoXs64YjWqCQsUCErZSoapkzg0K4JxeLFtdWq4uJTjwjuRG505GfWRAhEok_RWW6taIoJBFuujHGP_txxXqKy6xDcU4eUOWIzWNVqqqdQ7ByWrwGWCAHLBOzwrQmpgjT-RkJFwsg9pPhT-OjEqpz0zuzDY_a3wNOHoYCagEqoLn57gc1dVJwKt6nqNFtKWIarKKLABgx4mKNSDTiMqJH6MbUuyozXmov9xFDHSCky1UVLeUhrn8GC1DfUJ9rLuqIOQ0JCC1cngR_PN1gQH7dVbkixguTWrxVhMCNP6PZ4dMjLAaYS1gwrIK7HEGvdP2nIuNYM0s4xIDYTw4W3tmSvmoqJkXpP50C46RlZ_UauuQEWy89zPA6ReIF6ZomTUTPnmzxJUOTPONLVpY0DUkSYIJcz9sULiwPOpC2zi0Cn5cFWxqcbRClA4ZQ_qiPkxirj-rvRHRJ7I_PcZNtQBI9MfIrJcGJSO_elSweGm57Iy6URfpPLAwTQAZjztN2Y37gAzYkn5_NogtbcbwDG-6VFf-ndYLHPZGkiu5f8FjmD4WKjijhZxVFz9x36E-gjjohnNhVD4YFuQ7wGz_5i8WdhLinlB-EIRO6Tn3AT6Us9RX2m1gv7fYIdd7b86uj7NvjGu5u_-S-FZeYivrevy51_VTzydOGilPtZykMJNTfppWtpAiwdLT2nLyWKJBOfwhFIYxvMVzZ_dODSdk0yp6jAX3bGm-ugk9X1LADXrzermSQS4L1tsLZXldHWjL3tudNwnIQWwQPAu6VQoh6pcZxqNwb2xDRY8pIBrTULXppBPpbwVVBwbDxJt9CP4HteLQJh-S6Op8hBbV-BoMjWhw8TaRdYtQ4zgcIAEqCWV1LXdlc3QtMjDwDQ.m3u8' for reading
[hls @ 0x55ea35284200] Skip ('#EXT-X-VERSION:3')
[hls @ 0x55ea35284200] Skip ('#EXT-X-TWITCH-LIVE-SEQUENCE:1928')
[hls @ 0x55ea35284200] Skip ('#EXT-X-TWITCH-ELAPSED-SECS:3856.000')
[hls @ 0x55ea35284200] Skip ('#EXT-X-TWITCH-TOTAL-SECS:3888.000')
[hls @ 0x55ea35284200] Skip ('#EXT-X-DATERANGE:ID="playlist-creation-1764923504",CLASS="timestamp",START-DATE="2025-12-05T08:31:44.022Z",END-ON-NEXT=YES,X-SERVER-TIME="1764923504.02"')
[hls @ 0x55ea35284200] Skip ('#EXT-X-DATERANGE:ID="playlist-session-1764923504",CLASS="twitch-session",START-DATE="2025-12-05T08:31:44.022Z",END-ON-NEXT=YES,X-TV-TWITCH-SESSIONID="4646433022628159077"')
[hls @ 0x55ea35284200] Skip ('#EXT-X-DATERANGE:ID="source-1764923473",CLASS="twitch-stream-source",START-DATE="2025-12-05T08:31:13.649Z",END-ON-NEXT=YES,X-TV-TWITCH-STREAM-SOURCE="live"')
[hls @ 0x55ea35284200] Skip ('#EXT-X-DATERANGE:ID="trigger-1764923473",CLASS="twitch-trigger",START-DATE="2025-12-05T08:31:13.649Z",END-ON-NEXT=YES,X-TV-TWITCH-TRIGGER-URL="https://euw12.playlist.ttvnw.net/trigger/CqAGJp_nhwa_3hoqvgmQSHr3z43wSopQvf1tzrFTA7oGp9mvNqmRpYepS2tF0VrsAQ36xP6gTORLBt_Dgtn4q-x16FuaGfrZHsqxXEAJ_EwsHu_aRdGW7cBRlU-NfjgRIiFgEYArsw0bIq5lhL9Ddaps-_lM5Qtu4SSsM2JOV_cxY1XFXVcD1JfAuvbRA9U1O0B7urS-C-Y-sEIGCN56DbBW0NFD5fgZHfoY7irPecBlh3WRNLpysD2s8h8-gWSiXVXwmkPQgB3lXOvTYZcrxlz4i6pNphiyqArNmmIIyuIHiRVsx3oKwhrKT_HKlw6iIpohvyNfcA1lCJ26zxtXo0BT5jpCE7m1YWJbsHlC2HHo50v-drcMUwJiZVUjBhw7yi5d0VeUxsOLAKec4cv6TJozMxp0FfRmDKICwaHwwU4yljoShLCjZjP7wmuAfg-Rpz3sjTShftZKuZ58lzsS7kMWIuB2AqnMF7NFhcnY9JEV4GpO5NfI7sLV3rssvOagAf8b5mpSj3GIy_Dai1MlZK26513_j8Iz3rFaS_P75sg24vxCFpTY2wIWzVOX-Dt5LdUnywu9JQvmSyomuBIwOXoTbN5rFiF3V_Xt7hKuV2Pu2GeySAX2886d9OU_lv5EOQceiY5QWrNY4rbnqq80t1XlJ445Nqa3xJhitFrjNAehxJBcoOY2jzwbshdjO1U9mcC50uy17GxnAe58-8lpXAsQ2zva-qXpx84KW0AG94gSaQaXHfxawxHB2pi1BZ3qk_OxC3sUkcyaOw7kxmsDUNwSvbvzKWM2RhkeYnr2ouTPGG52FFeT-oB4q9iOl4Y-kQgwmPGRI2UpStCM90oHK8N1Kf2EjndzZhwLZIKq30sUjSBuGdXiPek8rkBnfNS7exfdfRqhhTITwqzPd-8yuVvfZcn7PjJiMqSbM4K1BETAvULqO8jzd_Pgj5icDGVCLYX_SfdJrpgPs1Z_7JGGOt3-z9oZqLAV6sjdki6cYXWYp6w9OLgvAEl7l_yQYT0dcy9oIcKUjzfMWwH63VSjxuxPDTLKuk0UWPhWDhUubGn3y70aDF7Q7wFaxweJT5E6MCABKglldS13ZXN0LTIw8A0"')
[hls @ 0x55ea35284200] Skip ('#EXT-X-PROGRAM-DATE-TIME:2025-12-05T08:31:47.649Z')
[hls @ 0x55ea35284200] Skip ('#EXT-X-PROGRAM-DATE-TIME:2025-12-05T08:31:49.649Z')
[hls @ 0x55ea35284200] Skip ('#EXT-X-PROGRAM-DATE-TIME:2025-12-05T08:31:51.649Z')
[hls @ 0x55ea35284200] Skip ('#EXT-X-PROGRAM-DATE-TIME:2025-12-05T08:31:53.649Z')
[hls @ 0x55ea35284200] Skip ('#EXT-X-PROGRAM-DATE-TIME:2025-12-05T08:31:55.649Z')
[hls @ 0x55ea35284200] Skip ('#EXT-X-PROGRAM-DATE-TIME:2025-12-05T08:31:57.649Z')
[hls @ 0x55ea35284200] Skip ('#EXT-X-PROGRAM-DATE-TIME:2025-12-05T08:31:59.649Z')
[hls @ 0x55ea35284200] Skip ('#EXT-X-PROGRAM-DATE-TIME:2025-12-05T08:32:01.649Z')
[hls @ 0x55ea35284200] Skip ('#EXT-X-PROGRAM-DATE-TIME:2025-12-05T08:32:03.649Z')
[hls @ 0x55ea35284200] Skip ('#EXT-X-PROGRAM-DATE-TIME:2025-12-05T08:32:05.649Z')
[hls @ 0x55ea35284200] Skip ('#EXT-X-PROGRAM-DATE-TIME:2025-12-05T08:32:07.649Z')
[hls @ 0x55ea35284200] Skip ('#EXT-X-PROGRAM-DATE-TIME:2025-12-05T08:32:09.649Z')
[hls @ 0x55ea35284200] Skip ('#EXT-X-PROGRAM-DATE-TIME:2025-12-05T08:32:11.649Z')
[hls @ 0x55ea35284200] Skip ('#EXT-X-PROGRAM-DATE-TIME:2025-12-05T08:32:13.649Z')
[hls @ 0x55ea35284200] Skip ('#EXT-X-TWITCH-PREFETCH:https://7dfcb88758ec.j.cloudfront.hls.ttvnw.net/v1/segment/CuQCffGYiDgG-rQR5ql9hhFtEHr1S3trpW2PJi-s0WRwPlQXjJ3kBnvn6JmKRM5t33SUFVjQYM-RvtpQnC7WgfMxwTaN6DBMQjn8hM_geZu2WQYvVIP4chrtcLfWQrfmkBa4eB8sTVrSmVUi9V20hcJ1-xRNTwY9ecFq48RCEXnvmbw_iqHSyx8I4Ezdf18X0__gQRph7hH7tzE45RxcDjE7LZ6IZT-S9tne5qY3Z42Rg2p2MS7fGVju4d6k5eeetuKbzPyzxfC3bJzylYYM1ynJTnNS_zHndny1aZVqpfX8COVsLkRIk5V5BG2oafXSKfakAZcFAKvm4mR-0mzNkk-vfPDUVNPoURWvAvcPle5M3dntDGKAZ9v8KgtIAr--IzztL0nGJtnvJs7N4wi_VHG8wqWrOlXqahTtaSDTktSkAp53mP09-41rokes49KzuvKIZc2V5SdzsomEs6kGr3w2nZylAC8aDDQKKtvQL8Jm-NAEQiABKglldS13ZXN0LTIw8A0.ts?dna=Cm1GkNRw8J1t_r3_tfkkswXRbGqUPvawLvlyiOH2GzJmijDvzeuJX__L2dzT6RcTo65T2Sjux9nvm5gmofV2lhvVP0n9Tqp2oqgERc-uGniX-luELFlWX4PshKn8BmdXrVewcTM7GSb1AHn7Na9eGgz42CR2kefd_YcFdrMgASoJZXUtd2VzdC0yMPAN')
[hls @ 0x55ea35284200] Skip ('#EXT-X-TWITCH-PREFETCH:https://7dfcb88758ec.j.cloudfront.hls.ttvnw.net/v1/segment/CuQCgR33KUcNlXirMfeNmv9RfaSgvW2rQmpjfwfo47FQ5uyG_JLEVAo7bEuD2vnnaF9ii8z2CbLqMzAUiQl9S-7n0_Mj4nFhMAnP4oyXGaKKSX41dcxjLxDgiGX13_s6RcIdhdV6YGfO1E1jkIW65bhMlO8mJVgJUt9DLxTzW1SlX4jqQV2wIgfOd7DylXERGD9XwR6XcoHWpve3AjnZR2SJ7hmJC0HS9j32fFKRoIvs4WmqCoyakZj_Ed0b4bR7Bih9Yt8zhTndWKGbKA1gNpmujRy2FHZwHO8YFlLaEWe_3F-NgJMn56Xw9hOD_Q80EK1kIDZ1gidVodJ57Dc1X8hv8LHJ1-UlP00Lm3bhe-SgwKrXDSFuRGzehsGqAqax0hbxgIdJOyrytUfZLZASb51Un0zHKo6XwQpsk8mrGb-W6wIA0IOVBJ5pgJsx3DipsLrXfECUa7DuaobdYEdNKeXmEFSFK5EaDHBLzw_Tkc32XRH_FSABKglldS13ZXN0LTIw8A0.ts?dna=Cm1GkNRw8J1t_r3_tfkkswXRbGqUPvawLvlyiOH2GzJmijDvzeuJX__L2dzT6RcTo65T2Sjux9nvm5gmofV2lhvVP0n9Tqp2oqgERc-uGniX-luELFlWX4PshKn8BmdXrVewcTM7GSb1AHn7Na9eGgz42CR2kefd_YcFdrMgASoJZXUtd2VzdC0yMPAN')
[https @ 0x55ea3554f740] Opening 'https://7dfcb88758ec.j.cloudfront.hls.ttvnw.net/v1/segment/CuQCRt1ZY1UKwz5pI3HRAC1xIFHbRch6RZx0Na137wHlFCXdmQueYyp_SJxrN8jNto96uM-9qc3Q7NuDccPJJL2a06C6OAiSSs4dTiihJqEIOoZi5bF0RD2W5wIjq603SZ6quCMduetL6ElFEJrON8pqY-UCNs9fpbjSIhomokj5czzu2KycTiwZDkd_oyEWJczIW26kfhn_bLbKeBys6SQ3ECtEGblofETAXV4f2-jz79g2n_CQzRvWRPvTrIlQtFLG7qGNiGAzcs3yOH89pfqbw3Z801RMe_HSLDauR2Wsw3fUgKZeVoUTHj2DLYhA9n321WQ1J0BBbZaodYMgCy8Fu_dxPddWWoAApam0R9Xoy6E2Lfat_UWhq--sj25raTSoUlyW131w2TRrzpIkRGNuXVM9OpVf0rTyobfW5irzkQmSjH2JRGgbeHY9AqK-WjULGT2Vd4DOgMd-FiFnnCycWsEDR3AaDGI8bnCfvK9Eyi5A3CABKglldS13ZXN0LTIw8A0.ts?dna=Cm1GkNRw8J1t_r3_tfkkswXRbGqUPvawLvlyiOH2GzJmijDvzeuJX__L2dzT6RcTo65T2Sjux9nvm5gmofV2lhvVP0n9Tqp2oqgERc-uGniX-luELFlWX4PshKn8BmdXrVewcTM7GSb1AHn7Na9eGgz42CR2kefd_YcFdrMgASoJZXUtd2VzdC0yMPAN' for reading
[out#0/mp4 @ 0x55ea35a7e300] video:2671KiB audio:438KiB subtitle:0KiB other streams:0KiB global headers:0KiB muxing overhead: 0.884141%
frame=  658 fps= 35 q=-1.0 Lsize=    3137KiB time=00:00:21.86 bitrate=1175.4kbits/s speed=1.17x    
Exiting normally, received signal 15.
2025-12-05 08:32:17,401 - __main__ - INFO - Download stopped for browser browser_1764923494
2025-12-05 08:32:17,402 - werkzeug - INFO - 192.168.0.246 - - [05/Dec/2025 08:32:17] "POST /api/downloads/stop/browser_1764923494 HTTP/1.1" 200 -
2025-12-05 08:32:17,417 - werkzeug - INFO - 192.168.0.246 - - [05/Dec/2025 08:32:17] "GET /api/downloads/active HTTP/1.1" 200 -
2025-12-05 08:32:19,805 - werkzeug - INFO - 192.168.0.246 - - [05/Dec/2025 08:32:19] "GET /api/downloads/active HTTP/1.1" 200 -
2025-12-05 08:32:30,786 - werkzeug - INFO - 192.168.0.246 - - [05/Dec/2025 08:32:30] "GET /api/downloads/active HTTP/1.1" 200 -
2025-12-05 08:32:40,774 - werkzeug - INFO - 192.168.0.246 - - [05/Dec/2025 08:32:40] "GET /api/downloads/active HTTP/1.1" 200 -
2025-12-05 08:32:50,778 - werkzeug - INFO - 192.168.0.246 - - [05/Dec/2025 08:32:50] "GET /api/downloads/active HTTP/1.1" 200 -
2025-12-05 08:32:59,810 - werkzeug - INFO - 192.168.0.246 - - [05/Dec/2025 08:32:59] "GET /api/downloads/active HTTP/1.1" 200 -
2025-12-05 08:33:10,781 - werkzeug - INFO - 192.168.0.246 - - [05/Dec/2025 08:33:10] "GET /api/downloads/active HTTP/1.1" 200 -
2025-12-05 08:33:20,800 - werkzeug - INFO - 192.168.0.246 - - [05/Dec/2025 08:33:20] "GET /api/downloads/active HTTP/1.1" 200 -
2025-12-05 08:33:30,773 - werkzeug - INFO - 192.168.0.246 - - [05/Dec/2025 08:33:30] "GET /api/downloads/active HTTP/1.1" 200 -
2025-12-05 08:33:40,770 - werkzeug - INFO - 192.168.0.246 - - [05/Dec/2025 08:33:40] "GET /api/downloads/active HTTP/1.1" 200 -
2025-12-05 08:33:50,772 - werkzeug - INFO - 192.168.0.246 - - [05/Dec/2025 08:33:50] "GET /api/downloads/active HTTP/1.1" 200 -
2025-12-05 08:34:00,769 - werkzeug - INFO - 192.168.0.246 - - [05/Dec/2025 08:34:00] "GET /api/downloads/active HTTP/1.1" 200 -
2025-12-05 08:34:26,778 - werkzeug - INFO - 192.168.0.246 - - [05/Dec/2025 08:34:26] "GET /api/downloads/active HTTP/1.1" 200 -
2025-12-05 08:34:31,806 - __main__ - INFO - Detected master playlist: https://usher.ttvnw.net/api/v2/channel/hls/topson.m3u8?allow_source=true&browser_family=chrome&brows...
2025-12-05 08:34:31,807 - __main__ - INFO - ✓✓✓ TWITCH HLS API DETECTED: https://usher.ttvnw.net/api/v2/channel/hls/topson.m3u8?allow_source=true&browser_family=chrome&browser_version=143.0&cdm=wv&enable_score=true&fast_bre...
2025-12-05 08:35:26,776 - werkzeug - INFO - 192.168.0.246 - - [05/Dec/2025 08:35:26] "GET /api/downloads/active HTTP/1.1" 200 -
2025-12-05 08:35:50,005 - werkzeug - INFO - 192.168.0.246 - - [05/Dec/2025 08:35:50] "GET /api/downloads/active HTTP/1.1" 200 -
